<svg width="30" height="30" viewBox="0 0 30 30" fill="none" xmlns="http://www.w3.org/2000/svg">
<g id="instagram (1) 1" clip-path="url(#clip0_441_910)">
<g id="Layer 2">
<g id="07.instagram">
<path id="Vector" d="M18.7892 7.51187H11.2107C10.7251 7.51165 10.2441 7.60711 9.79537 7.79281C9.34662 7.97851 8.93884 8.25081 8.59535 8.59414C8.25186 8.93748 7.97937 9.34513 7.79347 9.7938C7.60756 10.2425 7.51187 10.7234 7.51187 11.209V18.7874C7.51165 19.2732 7.60717 19.7543 7.79298 20.2032C7.97878 20.6521 8.25123 21.0599 8.59475 21.4034C8.93826 21.747 9.34611 22.0194 9.79498 22.2052C10.2438 22.391 10.7249 22.4865 11.2107 22.4863H18.7892C19.275 22.4865 19.756 22.391 20.2049 22.2052C20.6538 22.0194 21.0616 21.747 21.4051 21.4034C21.7487 21.0599 22.0211 20.6521 22.2069 20.2032C22.3927 19.7543 22.4882 19.2732 22.488 18.7874V11.209C22.488 10.7234 22.3923 10.2425 22.2064 9.7938C22.0205 9.34513 21.748 8.93748 21.4045 8.59414C21.061 8.25081 20.6533 7.97851 20.2045 7.79281C19.7558 7.60711 19.2748 7.51165 18.7892 7.51187ZM14.9999 19.8494C14.0408 19.8494 13.1032 19.565 12.3057 19.0321C11.5083 18.4992 10.8867 17.7419 10.5197 16.8557C10.1526 15.9696 10.0566 14.9946 10.2437 14.0539C10.4308 13.1132 10.8927 12.2491 11.5709 11.5709C12.2491 10.8927 13.1132 10.4308 14.0539 10.2437C14.9946 10.0566 15.9696 10.1526 16.8557 10.5197C17.7419 10.8867 18.4992 11.5083 19.0321 12.3057C19.565 13.1032 19.8494 14.0408 19.8494 14.9999C19.8476 16.2855 19.3361 17.518 18.427 18.427C17.518 19.3361 16.2855 19.8476 14.9999 19.8494ZM19.8766 11.3471C19.6407 11.3471 19.41 11.2771 19.2138 11.146C19.0175 11.0149 18.8646 10.8286 18.7743 10.6105C18.684 10.3925 18.6604 10.1526 18.7064 9.92114C18.7524 9.68969 18.8661 9.47708 19.0329 9.31021C19.1998 9.14334 19.4124 9.0297 19.6439 8.98366C19.8753 8.93762 20.1152 8.96125 20.3333 9.05156C20.5513 9.14187 20.7376 9.29481 20.8687 9.49102C20.9999 9.68724 21.0698 9.91793 21.0698 10.1539C21.0698 10.4704 20.9441 10.7739 20.7204 10.9976C20.4966 11.2214 20.1931 11.3471 19.8766 11.3471ZM14.9999 12.0357C14.4137 12.0357 13.8406 12.2096 13.3531 12.5353C12.8657 12.861 12.4857 13.324 12.2614 13.8656C12.037 14.4072 11.9783 15.0032 12.0927 15.5782C12.2071 16.1532 12.4894 16.6814 12.9039 17.096C13.3185 17.5105 13.8467 17.7928 14.4217 17.9072C14.9967 18.0216 15.5927 17.9629 16.1343 17.7385C16.6759 17.5142 17.1389 17.1342 17.4646 16.6468C17.7903 16.1593 17.9641 15.5862 17.9641 14.9999C17.9641 14.2138 17.6518 13.4598 17.096 12.9039C16.5401 12.348 15.7861 12.0357 14.9999 12.0357ZM18.7892 7.51187H11.2107C10.7251 7.51165 10.2441 7.60711 9.79537 7.79281C9.34662 7.97851 8.93884 8.25081 8.59535 8.59414C8.25186 8.93748 7.97937 9.34513 7.79347 9.7938C7.60756 10.2425 7.51187 10.7234 7.51187 11.209V18.7874C7.51165 19.2732 7.60717 19.7543 7.79298 20.2032C7.97878 20.6521 8.25123 21.0599 8.59475 21.4034C8.93826 21.747 9.34611 22.0194 9.79498 22.2052C10.2438 22.391 10.7249 22.4865 11.2107 22.4863H18.7892C19.275 22.4865 19.756 22.391 20.2049 22.2052C20.6538 22.0194 21.0616 21.747 21.4051 21.4034C21.7487 21.0599 22.0211 20.6521 22.2069 20.2032C22.3927 19.7543 22.4882 19.2732 22.488 18.7874V11.209C22.488 10.7234 22.3923 10.2425 22.2064 9.7938C22.0205 9.34513 21.748 8.93748 21.4045 8.59414C21.061 8.25081 20.6533 7.97851 20.2045 7.79281C19.7558 7.60711 19.2748 7.51165 18.7892 7.51187ZM14.9999 19.8494C14.0408 19.8494 13.1032 19.565 12.3057 19.0321C11.5083 18.4992 10.8867 17.7419 10.5197 16.8557C10.1526 15.9696 10.0566 14.9946 10.2437 14.0539C10.4308 13.1132 10.8927 12.2491 11.5709 11.5709C12.2491 10.8927 13.1132 10.4308 14.0539 10.2437C14.9946 10.0566 15.9696 10.1526 16.8557 10.5197C17.7419 10.8867 18.4992 11.5083 19.0321 12.3057C19.565 13.1032 19.8494 14.0408 19.8494 14.9999C19.8476 16.2855 19.3361 17.518 18.427 18.427C17.518 19.3361 16.2855 19.8476 14.9999 19.8494ZM19.8766 11.3471C19.6407 11.3471 19.41 11.2771 19.2138 11.146C19.0175 11.0149 18.8646 10.8286 18.7743 10.6105C18.684 10.3925 18.6604 10.1526 18.7064 9.92114C18.7524 9.68969 18.8661 9.47708 19.0329 9.31021C19.1998 9.14334 19.4124 9.0297 19.6439 8.98366C19.8753 8.93762 20.1152 8.96125 20.3333 9.05156C20.5513 9.14187 20.7376 9.29481 20.8687 9.49102C20.9999 9.68724 21.0698 9.91793 21.0698 10.1539C21.0698 10.4704 20.9441 10.7739 20.7204 10.9976C20.4966 11.2214 20.1931 11.3471 19.8766 11.3471ZM14.9999 12.0357C14.4137 12.0357 13.8406 12.2096 13.3531 12.5353C12.8657 12.861 12.4857 13.324 12.2614 13.8656C12.037 14.4072 11.9783 15.0032 12.0927 15.5782C12.2071 16.1532 12.4894 16.6814 12.9039 17.096C13.3185 17.5105 13.8467 17.7928 14.4217 17.9072C14.9967 18.0216 15.5927 17.9629 16.1343 17.7385C16.6759 17.5142 17.1389 17.1342 17.4646 16.6468C17.7903 16.1593 17.9641 15.5862 17.9641 14.9999C17.9641 14.2138 17.6518 13.4598 17.096 12.9039C16.5401 12.348 15.7861 12.0357 14.9999 12.0357ZM29.4886 5.36415C29.3558 4.1223 28.8016 2.96341 27.9183 2.08044C27.035 1.19746 25.8759 0.643686 24.634 0.511306C18.2317 -0.171737 11.775 -0.171737 5.37267 0.511306C4.12955 0.642222 2.96888 1.19535 2.08423 2.07846C1.19957 2.96156 0.644403 4.12126 0.511306 5.36415C-0.171737 11.7664 -0.171737 18.2232 0.511306 24.6255C0.641925 25.8692 1.19514 27.0305 2.07862 27.9155C2.9621 28.8005 4.1224 29.3558 5.36585 29.4886C11.768 30.175 18.2251 30.175 24.6272 29.4886C25.8709 29.3575 27.0319 28.8039 27.9167 27.9201C28.8014 27.0363 29.3562 25.8758 29.4886 24.6323C30.1721 18.2278 30.1721 11.7687 29.4886 5.36415ZM24.3749 18.7874C24.374 20.2688 23.7853 21.6892 22.738 22.7368C21.6907 23.7844 20.2705 24.3736 18.7892 24.3749H11.2107C9.72955 24.3731 8.30957 23.7838 7.26238 22.7363C6.21518 21.6888 5.6263 20.2686 5.62494 18.7874V11.209C5.62675 9.7283 6.21588 8.30875 7.26308 7.26188C8.31028 6.215 9.73 5.6263 11.2107 5.62494H18.7892C20.2699 5.6263 21.6896 6.215 22.7368 7.26188C23.784 8.30875 24.3731 9.7283 24.3749 11.209V18.7874ZM18.7892 7.51187H11.2107C10.7251 7.51165 10.2441 7.60711 9.79537 7.79281C9.34662 7.97851 8.93884 8.25081 8.59535 8.59414C8.25186 8.93748 7.97937 9.34513 7.79347 9.7938C7.60756 10.2425 7.51187 10.7234 7.51187 11.209V18.7874C7.51165 19.2732 7.60717 19.7543 7.79298 20.2032C7.97878 20.6521 8.25123 21.0599 8.59475 21.4034C8.93826 21.747 9.34611 22.0194 9.79498 22.2052C10.2438 22.391 10.7249 22.4865 11.2107 22.4863H18.7892C19.275 22.4865 19.756 22.391 20.2049 22.2052C20.6538 22.0194 21.0616 21.747 21.4051 21.4034C21.7487 21.0599 22.0211 20.6521 22.2069 20.2032C22.3927 19.7543 22.4882 19.2732 22.488 18.7874V11.209C22.488 10.7234 22.3923 10.2425 22.2064 9.7938C22.0205 9.34513 21.748 8.93748 21.4045 8.59414C21.061 8.25081 20.6533 7.97851 20.2045 7.79281C19.7558 7.60711 19.2748 7.51165 18.7892 7.51187ZM14.9999 19.8494C14.0408 19.8494 13.1032 19.565 12.3057 19.0321C11.5083 18.4992 10.8867 17.7419 10.5197 16.8557C10.1526 15.9696 10.0566 14.9946 10.2437 14.0539C10.4308 13.1132 10.8927 12.2491 11.5709 11.5709C12.2491 10.8927 13.1132 10.4308 14.0539 10.2437C14.9946 10.0566 15.9696 10.1526 16.8557 10.5197C17.7419 10.8867 18.4992 11.5083 19.0321 12.3057C19.565 13.1032 19.8494 14.0408 19.8494 14.9999C19.8476 16.2855 19.3361 17.518 18.427 18.427C17.518 19.3361 16.2855 19.8476 14.9999 19.8494ZM19.8766 11.3471C19.6407 11.3471 19.41 11.2771 19.2138 11.146C19.0175 11.0149 18.8646 10.8286 18.7743 10.6105C18.684 10.3925 18.6604 10.1526 18.7064 9.92114C18.7524 9.68969 18.8661 9.47708 19.0329 9.31021C19.1998 9.14334 19.4124 9.0297 19.6439 8.98366C19.8753 8.93762 20.1152 8.96125 20.3333 9.05156C20.5513 9.14187 20.7376 9.29481 20.8687 9.49102C20.9999 9.68724 21.0698 9.91793 21.0698 10.1539C21.0698 10.4704 20.9441 10.7739 20.7204 10.9976C20.4966 11.2214 20.1931 11.3471 19.8766 11.3471ZM14.9999 12.0357C14.4137 12.0357 13.8406 12.2096 13.3531 12.5353C12.8657 12.861 12.4857 13.324 12.2614 13.8656C12.037 14.4072 11.9783 15.0032 12.0927 15.5782C12.2071 16.1532 12.4894 16.6814 12.9039 17.096C13.3185 17.5105 13.8467 17.7928 14.4217 17.9072C14.9967 18.0216 15.5927 17.9629 16.1343 17.7385C16.6759 17.5142 17.1389 17.1342 17.4646 16.6468C17.7903 16.1593 17.9641 15.5862 17.9641 14.9999C17.9641 14.2138 17.6518 13.4598 17.096 12.9039C16.5401 12.348 15.7861 12.0357 14.9999 12.0357Z" fill="white"/>
</g>
</g>
</g>
<defs>
<clipPath id="clip0_441_910">
<rect width="30" height="30" fill="white"/>
</clipPath>
</defs>
</svg>
