<svg width="30" height="30" viewBox="0 0 30 30" fill="none" xmlns="http://www.w3.org/2000/svg">
<g id="Group">
<path id="Vector" d="M28.3493 1.65024C27.2495 0.550149 25.9244 0 24.3751 0H5.62497C4.07563 0 2.75054 0.550149 1.65024 1.65024C0.550149 2.75054 0 4.07556 0 5.62497V24.3749C0 25.9242 0.550149 27.2493 1.65024 28.3496C2.75054 29.4499 4.07563 30.0001 5.62497 30.0001H24.3749C25.9242 30.0001 27.2493 29.4499 28.3491 28.3496C29.4494 27.2493 29.9996 25.9242 29.9996 24.3749V5.62497C29.9995 4.07556 29.4494 2.75033 28.3493 1.65024ZM22.9492 11.5431C22.9622 11.6603 22.9689 11.8357 22.9689 12.0705C22.9689 13.1643 22.8092 14.2613 22.4904 15.3613C22.1715 16.4618 21.6831 17.5164 21.0253 18.5255C20.3682 19.5345 19.5836 20.4266 18.6723 21.2013C17.7607 21.9757 16.6671 22.5945 15.3908 23.0564C14.1151 23.519 12.7477 23.7503 11.2895 23.7503C9.02403 23.7503 6.92769 23.1379 5.00052 21.9144C5.31302 21.9533 5.63872 21.9729 5.97707 21.9729C7.86517 21.9729 9.56439 21.387 11.0749 20.2148C10.1896 20.2021 9.39843 19.9289 8.70189 19.3945C8.00514 18.8607 7.52025 18.1837 7.24675 17.3633C7.58517 17.4153 7.83904 17.4411 8.00828 17.4411C8.29471 17.4411 8.62684 17.3891 9.00432 17.2852C8.05384 17.1026 7.25318 16.6311 6.60213 15.8693C5.95094 15.1075 5.62544 14.2385 5.62544 13.262V13.2229C6.31535 13.5482 6.96641 13.7175 7.57847 13.7307C6.39355 12.9362 5.80112 11.7971 5.80112 10.3127C5.80112 9.58348 5.98979 8.89343 6.36741 8.24238C7.39595 9.50549 8.6462 10.5145 10.1173 11.2696C11.5886 12.0247 13.1643 12.4481 14.8439 12.5392C14.7789 12.2918 14.7463 11.9792 14.7463 11.6017C14.7463 10.4687 15.1467 9.50207 15.9475 8.7012C16.7481 7.9004 17.715 7.49986 18.8477 7.49986C20.0459 7.49986 21.0422 7.92968 21.8364 8.78911C22.7349 8.61986 23.6076 8.28767 24.4537 7.79307C24.1283 8.7954 23.5224 9.55721 22.6374 10.0781C23.4835 9.96069 24.2711 9.73945 25.0001 9.41396C24.4533 10.2473 23.7695 10.9569 22.9492 11.5431Z" fill="white"/>
</g>
</svg>
