<?xml version="1.0" encoding="UTF-8"?><svg id="Layer_2" xmlns="http://www.w3.org/2000/svg" viewBox="0 0 684.62 245.59"><defs><style>.cls-1{fill:#fff;}</style></defs><g id="Layer_1-2"><path class="cls-1" d="m7.07,117.97c-24.41,55.85,17.29,129.06,80.42,127.6,32.97.54,63.13-20.55,77.31-49.44.81-1.64-.12-3.62-1.9-4.03-49.16-10.12-20.07-12.42-51.25,10.57-29.37,18.23-67.83-2.77-72.48-36.11h134.49c3.01-26.83-4.23-53.36-20.76-73.7C111.99,41.2,29.93,57.28,7.07,117.97Zm30.87,20.84c10.5-59.74,89.09-59.54,99.08,0H37.94Z"/><path class="cls-1" d="m306.08,66.78h-28.22c-2.21,0-4,1.79-4,3.99l-.09,166.93c0,2.21,1.79,4,4,4h28.22c2.21,0,4-1.79,4-3.99l.09-166.93c0-2.21-1.79-4-4-4Z"/><path class="cls-1" d="m655.24,81.08c-49.77-37.49-130.67,1.03-131.34,63.72,0,0,0,92.9,0,92.9,0,2.21,1.79,4,4,4h28.28c2.21,0,4-1.79,4-4v-87.04c-.12-17.29,9.77-34.12,25.02-42.28,13.83-7.77,33.33-7.75,46.92.87,6.52,3.97,12,9.3,16.42,15.99.92,1.39,2.61,2.07,4.23,1.69l29.17-6.78c12.08-4.92-20.19-35.42-26.7-39.07Z"/><path class="cls-1" d="m291.92,0c-30.17.52-30.17,45.39,0,45.9,30.17-.52,30.17-45.39,0-45.9Z"/><rect class="cls-1" x="200.56" y="3.7" width="36.4" height="238" rx="4" ry="4"/><path class="cls-1" d="m442.32,155.31c-.51-.7-.51-1.65,0-2.35l57.86-79.69c1.92-2.64.03-6.35-3.24-6.35h-34.78c-1.27,0-2.47.61-3.23,1.64l-38.35,52.33c-.8,1.09-2.43,1.09-3.23,0l-38.18-52.32c-.75-1.03-1.95-1.64-3.23-1.64h-34.94c-3.27,0-5.16,3.71-3.23,6.35l58.01,79.69c.51.7.51,1.65,0,2.36l-58.35,80.03c-1.93,2.64-.04,6.36,3.23,6.36h34.93c1.28,0,2.48-.61,3.24-1.65l38.53-53c.8-1.1,2.43-1.1,3.23,0l38.7,53.01c.75,1.03,1.95,1.64,3.23,1.64h34.93c3.27,0,5.16-3.71,3.23-6.36l-58.35-80.03Z"/></g></svg>