<?xml version="1.0" encoding="UTF-8"?><svg id="Layer_2" xmlns="http://www.w3.org/2000/svg" viewBox="0 0 684.62 814.81"><defs><style>.cls-1{fill:#fff;}</style></defs><g id="Layer_1-2"><path class="cls-1" d="m7.07,687.19c-24.41,55.85,17.29,129.06,80.42,127.6,32.97.54,63.13-20.55,77.31-49.44.81-1.64-.12-3.62-1.9-4.03-49.16-10.12-20.07-12.42-51.25,10.57-29.37,18.23-67.83-2.77-72.48-36.11h134.49c3.01-26.83-4.23-53.36-20.76-73.7-40.91-51.66-122.97-35.57-145.83,25.12Zm30.87,20.84c10.5-59.74,89.09-59.54,99.08,0H37.94Z"/><path class="cls-1" d="m306.08,636h-28.22c-2.21,0-4,1.79-4,3.99l-.09,166.93c0,2.21,1.79,4,4,4h28.22c2.21,0,4-1.79,4-3.99l.09-166.93c0-2.21-1.79-4-4-4Z"/><path class="cls-1" d="m655.24,650.3c-49.77-37.49-130.67,1.03-131.34,63.72,0,0,0,92.9,0,92.9,0,2.21,1.79,4,4,4h28.28c2.21,0,4-1.79,4-4v-87.04c-.12-17.29,9.77-34.12,25.02-42.28,13.83-7.77,33.33-7.75,46.92.87,6.52,3.97,12,9.3,16.42,15.99.92,1.39,2.61,2.07,4.23,1.69l29.17-6.78c12.08-4.92-20.19-35.42-26.7-39.07Z"/><path class="cls-1" d="m291.92,569.22c-30.17.52-30.17,45.39,0,45.9,30.17-.52,30.17-45.39,0-45.9Z"/><rect class="cls-1" x="200.56" y="572.92" width="36.4" height="238" rx="4" ry="4"/><path class="cls-1" d="m442.32,724.53c-.51-.7-.51-1.65,0-2.35l57.86-79.69c1.92-2.64.03-6.35-3.24-6.35h-34.78c-1.27,0-2.47.61-3.23,1.64l-38.35,52.33c-.8,1.09-2.43,1.09-3.23,0l-38.18-52.32c-.75-1.03-1.95-1.64-3.23-1.64h-34.94c-3.27,0-5.16,3.71-3.23,6.35l58.01,79.69c.51.7.51,1.65,0,2.36l-58.35,80.03c-1.93,2.64-.04,6.36,3.23,6.36h34.93c1.28,0,2.48-.61,3.24-1.65l38.53-53c.8-1.1,2.43-1.1,3.23,0l38.7,53.01c.75,1.03,1.95,1.64,3.23,1.64h34.93c3.27,0,5.16-3.71,3.23-6.36l-58.35-80.03Z"/><path class="cls-1" d="m395.75,361.17l1.26.92-72.7,98.96c-9.17,12.49-21.32,22.39-35.13,28.64l-.23.1c-16.79,7.56-34.31,11.16-52.11,10.71-2.04-.05-4.06-.16-6.02-.3-20.16-1.51-38.86-8.51-55.59-20.8-18.21-13.37-31.07-30.84-38.23-51.92-7.08-20.83-8.37-42.17-3.84-63.45l1.15-5.42c.79-3.7,4.76-5.76,8.24-4.27l48.92,20.99c2.4,1.03,3.86,3.49,3.61,6.09l-.32,3.31c-.86,8.95.27,17.04,3.44,24.75,3.07,7.45,7.88,13.52,14.68,18.53,6.63,4.71,13.42,7.48,20.76,8.47,7.39.99,14.43.24,21.51-2.28,8.69-3.12,16.24-8.76,21.71-16.19l31.99-43.55c20.33-27.67,59.23-33.62,86.9-13.29Z"/><path class="cls-1" d="m223.05,274.04l-49.98-16.53c-8.65-2.86-16.25-8.24-21.83-15.44l-.12-.15c-4.59-5.95-7.48-12.42-8.82-19.75-1.33-7.28-.8-14.6,1.64-22.35,2.67-8.02,6.95-14.47,13.09-19.69,6.35-5.4,13.7-8.97,22.47-10.92l3.24-.72c2.55-.57,4.44-2.72,4.68-5.32l4.85-53.01c.34-3.77-2.84-6.91-6.61-6.52l-5.51.58c-21.63,2.27-41.54,10.09-59.16,23.25-17.83,13.33-30.47,30.96-37.57,52.41-6.52,19.71-7.4,39.66-2.6,59.3.47,1.91,1,3.86,1.58,5.82,5.08,17.06,13.91,32.61,26.28,46.23l.18.2c3.89,4.26,8.2,8.13,12.87,11.56,7.59,5.58,16.12,9.98,25.23,13l116.58,38.56c11.05-33.41-7.07-69.46-40.49-80.51Z"/><path class="cls-1" d="m241.71,58.66c-7.5,13.17-11.5,28.32-11.58,43.82l-.65,122.8c35.19.19,63.87-28.19,64.06-63.39l.28-52.48c.05-9.23,2.85-18.23,8.04-25.86,4.24-6.21,9.5-10.95,16.06-14.49,6.51-3.52,13.64-5.27,21.77-5.35,8.45.06,15.9,2.14,22.77,6.36,7.09,4.37,12.76,10.26,17.33,18l1.69,2.86c1.33,2.25,3.95,3.38,6.5,2.8l51.92-11.77c3.69-.84,5.7-4.84,4.16-8.3l-2.25-5.06c-8.84-19.88-22.43-36.38-40.4-49.08C383.21,6.69,362.53.12,339.94,0c-20.76-.11-40.01,5.22-57.2,15.85-1.67,1.03-3.36,2.14-5.05,3.3-14.66,10.1-26.72,23.31-35.84,39.26l-.15.26Z"/><path class="cls-1" d="m341.88,152.93c10.7,33.53,46.55,52.03,80.08,41.34l50-15.95c8.79-2.8,18.22-2.92,27.08-.34,7.21,2.12,13.35,5.65,18.74,10.8,5.36,5.11,9.22,11.34,11.81,19.05,2.56,8.06,2.88,15.79.98,23.62-2.17,8.97-6.67,16.86-13.77,24.22-1.9,1.97-2.29,4.94-.89,7.29l27.22,45.7c1.89,3.18,6.16,3.88,9.02,1.54,18.47-15.16,31.45-34.48,38.54-57.32,6.59-21.26,6.46-42.96-.41-64.48-6.31-19.78-17.33-36.44-32.75-49.5-1.5-1.27-3.07-2.54-4.7-3.78-14.13-10.82-30.43-18.21-48.43-21.96l-.27-.06c-14.84-3.06-30.49-2.19-45.25,2.52l-116.99,37.33h0Z"/><path class="cls-1" d="m525.43,438.23h0c.74-1.83,1.47-3.72,2.15-5.64,5.92-16.79,7.92-34.56,5.92-52.8l-.03-.32c-1.68-15.06-7.34-29.67-16.38-42.26l-71.65-99.73-1.27.91c-27.88,20.03-34.24,58.87-14.21,86.75l31.53,43.89c5.38,7.49,8.41,16.42,8.69,25.65.21,7.51-1.25,14.44-4.48,21.16-3.2,6.68-7.94,12.28-14.47,17.12-6.87,4.92-14.12,7.62-22.16,8.23-8.31.64-16.35-.8-24.6-4.37l-3.05-1.32c-2.39-1.04-5.19-.41-6.91,1.55l-35.08,40.04c-2.49,2.85-1.76,7.26,1.51,9.16l4.8,2.77c18.84,10.88,39.54,16.25,61.53,15.96,22.26-.3,42.85-7.14,61.19-20.32,16.86-12.12,29.3-27.74,36.96-46.44Z"/></g></svg>