<svg width="16" height="16" viewBox="0 0 16 16" fill="none" xmlns="http://www.w3.org/2000/svg">
<g id="send (2) 1" clip-path="url(#clip0_891_1133)">
<g id="Layer 2">
<path id="Vector" d="M14.035 0.840042L1.33497 4.77504C1.09971 4.83749 0.89091 4.97423 0.739631 5.16491C0.588353 5.35559 0.502687 5.59002 0.495382 5.83331C0.488078 6.0766 0.559526 6.31575 0.699092 6.51517C0.838659 6.71458 1.03888 6.8636 1.26997 6.94004L7.02997 8.87004C7.05097 8.87802 7.07017 8.89009 7.08648 8.90554C7.10278 8.92098 7.11587 8.93951 7.12497 8.96004L9.24497 14.46C9.33076 14.681 9.48217 14.8704 9.67884 15.0027C9.8755 15.135 10.108 15.2039 10.345 15.2H10.375C10.6159 15.1993 10.8505 15.1225 11.0454 14.9807C11.2402 14.8388 11.3853 14.6391 11.46 14.41L15.5 2.28004C15.5633 2.08583 15.5726 1.87804 15.5268 1.67897C15.481 1.47989 15.3818 1.29704 15.24 1.15004C15.0883 0.990759 14.8949 0.877258 14.6819 0.822454C14.4688 0.76765 14.2447 0.773744 14.035 0.840042Z" fill="#CCCCCC"/>
</g>
</g>
<defs>
<clipPath id="clip0_891_1133">
<rect width="16" height="16" fill="white"/>
</clipPath>
</defs>
</svg>
