<svg width="25" height="33" viewBox="0 0 25 33" fill="none" xmlns="http://www.w3.org/2000/svg">
<g id="Group 1171275127">
<path id="Vector" fill-rule="evenodd" clip-rule="evenodd" d="M15.0415 22.375C15.0415 21.5957 14.7279 20.8924 14.2178 20.3824C13.7078 19.8724 13.0045 19.5587 12.2252 19.5587C11.449 19.5587 10.7458 19.8724 10.2357 20.3824C9.72572 20.8925 9.40893 21.5958 9.40893 22.375C9.40893 22.9769 9.599 23.5376 9.9253 23.997C10.1946 24.3772 10.5557 24.6876 10.9771 24.8967V26.2051C10.9771 26.5472 11.1164 26.8608 11.3446 27.0858C11.5695 27.3107 11.8831 27.4533 12.2253 27.4533C12.5706 27.4533 12.881 27.3107 13.1091 27.0858C13.3341 26.8609 13.4734 26.5472 13.4734 26.2051V24.8967C13.8947 24.6876 14.2591 24.3772 14.5283 23.997C14.8514 23.5376 15.0415 22.9769 15.0415 22.375ZM6.07308 14.1733H21.5769C22.3688 14.1733 23.0879 14.4964 23.6075 15.0191C24.127 15.5386 24.4502 16.2578 24.4502 17.0498V29.959C24.4502 30.751 24.127 31.4701 23.6075 31.9896C23.088 32.5124 22.3688 32.8354 21.5769 32.8354H2.87667C2.0847 32.8354 1.3656 32.5123 0.846011 31.9896C0.323343 31.4701 0.000193894 30.7509 0.000193894 29.959V17.0498C0.000193894 16.2578 0.323343 15.5386 0.846011 15.0191C1.15965 14.7023 1.54931 14.4584 1.9833 14.3158V10.2419C1.9833 8.86068 2.26205 7.53962 2.76261 6.33268C3.28535 5.07818 4.04564 3.9504 4.99285 3.00634C5.93692 2.06227 7.0647 1.29883 8.31913 0.776163C9.52613 0.275599 10.8471 0 12.2252 0C13.6064 0 14.9274 0.275599 16.1344 0.776163C17.3889 1.29883 18.5167 2.06234 19.4608 3.00634C20.4048 3.95034 21.1683 5.07818 21.6878 6.33268C22.1915 7.53962 22.4671 8.86068 22.4671 10.2419C22.4671 10.8058 22.239 11.3158 21.8683 11.6865C21.4977 12.0571 20.9876 12.2852 20.4238 12.2852C19.8599 12.2852 19.3467 12.0572 18.9761 11.6865C18.6086 11.3158 18.3773 10.8058 18.3773 10.2419C18.3773 9.41188 18.2126 8.61991 17.9116 7.8976C17.5981 7.14682 17.1387 6.46569 16.5685 5.89547C15.9983 5.32847 15.3203 4.86909 14.5695 4.55545C13.8472 4.25453 13.0552 4.08978 12.2253 4.08978C11.3953 4.08978 10.6033 4.25447 9.88103 4.55545C9.13025 4.86909 8.45233 5.32847 7.88205 5.89547C7.31183 6.46569 6.85246 7.14682 6.54203 7.8976C6.24111 8.61985 6.07314 9.41188 6.07314 10.2419V14.1733H6.07308Z" fill="#4F5155"/>
<rect id="Rectangle 256" width="8.35344" height="10.6667" transform="matrix(-1 0 0 1 15.564 18.0879)" fill="#4F5155"/>
</g>
</svg>
