<svg width="35" height="35" viewBox="0 0 35 35" fill="none" xmlns="http://www.w3.org/2000/svg">
<g id="Layer_1-2">
<path id="Vector" d="M24.6365 18.8379H24.742V27.1384C24.742 28.1856 24.4772 29.2115 23.9749 30.1044L23.9668 30.1186C23.3549 31.2024 22.5441 32.0994 21.5568 32.7874C21.4431 32.8665 21.3295 32.9416 21.2168 33.0116C20.058 33.7361 18.7602 34.1035 17.3558 34.1035C15.8286 34.1035 14.4293 33.6671 13.1954 32.8056C11.9767 31.9543 11.0523 30.8432 10.4475 29.5027L10.2933 29.1607C10.1878 28.9273 10.3227 28.6564 10.5713 28.5986L14.0762 27.7848C14.2477 27.7452 14.4263 27.8203 14.5166 27.9725L14.6312 28.1653C14.9428 28.6869 15.3284 29.0826 15.8094 29.3759C16.2751 29.659 16.7794 29.797 17.3507 29.798C17.9007 29.7899 18.3807 29.6691 18.8201 29.4286C19.2625 29.1871 19.6156 28.8644 19.9007 28.4433C20.2488 27.9258 20.4355 27.316 20.4355 26.6929V23.0399C20.4355 20.7192 22.3168 18.8379 24.6375 18.8379H24.6365Z" fill="white"/>
<path id="Vector_2" d="M11.7423 21.0024L8.35816 22.1024C7.77267 22.2931 7.14353 22.3043 6.55093 22.1348L6.53876 22.1308C6.05067 21.9897 5.63463 21.7533 5.26832 21.4073C4.90403 21.0643 4.64121 20.6442 4.46262 20.1236C4.28707 19.5798 4.26272 19.0572 4.38753 18.5275C4.51742 17.9795 4.77516 17.4914 5.17496 17.0338L5.32311 16.8643C5.43879 16.7314 5.45604 16.5386 5.36471 16.3874L3.50675 13.3057C3.37483 13.0865 3.07549 13.0429 2.88573 13.2154L2.60871 13.467C1.52092 14.4564 0.749727 15.6791 0.316437 17.1008C-0.121926 18.5407 -0.104675 20.007 0.367174 21.459C0.800463 22.7934 1.55136 23.9157 2.59856 24.7934C2.70004 24.8787 2.8076 24.9639 2.91719 25.0471C3.87611 25.7737 4.98013 26.2668 6.19882 26.5144L6.21709 26.5185C6.59964 26.5956 6.9893 26.6331 7.38098 26.6331C8.01823 26.6331 8.65852 26.5317 9.27548 26.3318L17.1691 23.7665C16.4344 21.5037 14.0041 20.2657 11.7413 21.0014L11.7423 21.0024Z" fill="white"/>
<path id="Vector_3" d="M4.13987 8.52418C4.25859 9.54195 4.64622 10.5273 5.26216 11.3746L10.141 18.09C12.0659 16.6917 12.4921 13.9986 11.0938 12.0737L9.00854 9.20405C8.64222 8.69973 8.4342 8.09698 8.41188 7.47393C8.39463 6.96555 8.49103 6.49776 8.70716 6.04215C8.92127 5.58958 9.23888 5.20906 9.67927 4.87927C10.142 4.54441 10.6311 4.35973 11.174 4.31508C11.7351 4.26942 12.279 4.36277 12.8381 4.60225L13.0441 4.69053C13.2065 4.75953 13.3952 4.71691 13.5109 4.58297L15.8681 1.86451C16.0355 1.6707 15.9848 1.37338 15.7626 1.24654L15.4368 1.06085C14.1603 0.33024 12.759 -0.0259295 11.2724 0.00146815C9.76756 0.0298806 8.37839 0.498685 7.14347 1.39672C6.00798 2.2217 5.17286 3.28209 4.66144 4.54948C4.61172 4.67227 4.56402 4.80114 4.51836 4.93102C4.12363 6.06752 3.99578 7.26997 4.13682 8.50388L4.13885 8.52418H4.13987Z" fill="white"/>
<path id="Vector_4" d="M13.3689 9.64952C15.2938 11.0478 17.9869 10.6206 19.3852 8.69669L21.4705 5.82704C21.8368 5.32272 22.3462 4.93915 22.9317 4.72504C23.4096 4.55152 23.8845 4.49876 24.3848 4.56268C24.881 4.62661 25.3407 4.81129 25.7902 5.12789C26.2519 5.46478 26.5786 5.8727 26.7887 6.37499C27.0292 6.95034 27.1002 7.56019 27.0079 8.24514C26.9835 8.42779 27.0809 8.60638 27.2514 8.67741L30.5625 10.0777C30.7928 10.1752 31.0536 10.0422 31.1155 9.80072C31.5153 8.236 31.4493 6.66419 30.9207 5.13601C30.4285 3.71335 29.5528 2.53728 28.3179 1.64026C27.1824 0.815288 25.916 0.348512 24.5532 0.254143C24.4213 0.24501 24.2843 0.238922 24.1463 0.235878C22.9439 0.212539 21.7607 0.461147 20.6293 0.977645L20.612 0.985762C19.6815 1.41296 18.8637 2.08674 18.2477 2.93404L13.3689 9.64952Z" fill="white"/>
<path id="Vector_5" d="M34.7848 17.8456C34.7524 17.7157 34.7158 17.5838 34.6762 17.4519C34.3272 16.3002 33.7244 15.2519 32.8863 14.3387L32.8721 14.3225C32.178 13.5695 31.285 13.0003 30.2886 12.6766L22.395 10.1113L22.3625 10.2118C21.6451 12.4188 22.8536 14.7892 25.0597 15.5056L28.5341 16.634C29.1277 16.8268 29.6493 17.1921 30.0339 17.6832C30.3464 18.0841 30.5433 18.5194 30.6366 19.0156C30.729 19.5077 30.6955 20.0019 30.5341 20.5275C30.3565 21.0704 30.0694 21.5078 29.6564 21.8629C29.2292 22.2302 28.734 22.4738 28.1414 22.6087L27.9222 22.6585C27.7497 22.698 27.6229 22.8431 27.6076 23.0197L27.2992 26.6047C27.2768 26.8594 27.494 27.0715 27.7477 27.0431L28.1201 27.0025C29.5813 26.8412 30.9238 26.3054 32.11 25.4094C33.3104 24.5022 34.1587 23.3059 34.6306 21.8538C35.0639 20.5194 35.1166 19.1698 34.7858 17.8446L34.7848 17.8456Z" fill="white"/>
</g>
</svg>
