<svg width="24" height="33" viewBox="0 0 24 33" fill="none" xmlns="http://www.w3.org/2000/svg">
<g id="lock">
<g id="Group 1171275124">
<path id="Vector" fill-rule="evenodd" clip-rule="evenodd" d="M9.23557 21.9632C9.23557 21.1982 9.54337 20.5079 10.0441 20.0073C10.5447 19.5066 11.235 19.1988 12 19.1988C12.7619 19.1988 13.4522 19.5066 13.9529 20.0073C14.4535 20.5079 14.7644 21.1983 14.7644 21.9632C14.7644 22.554 14.5779 23.1044 14.2576 23.5553C13.9932 23.9285 13.6387 24.2332 13.2252 24.4385V25.7228C13.2252 26.0586 13.0884 26.3664 12.8644 26.5873C12.6436 26.808 12.3358 26.948 11.9999 26.948C11.661 26.948 11.3563 26.808 11.1323 26.5873C10.9115 26.3665 10.7748 26.0586 10.7748 25.7228V24.4385C10.3612 24.2332 10.0036 23.9285 9.73928 23.5553C9.42214 23.1044 9.23557 22.554 9.23557 21.9632ZM18.0389 13.9124H2.82044C2.04305 13.9124 1.33718 14.2296 0.82716 14.7427C0.317202 15.2526 0 15.9586 0 16.736V29.4076C0 30.185 0.317202 30.8909 0.82716 31.4009C1.33712 31.914 2.04305 32.2311 2.82044 32.2311H21.1765C21.9539 32.2311 22.6597 31.9139 23.1697 31.4009C23.6828 30.8909 24 30.185 24 29.4076V16.736C24 15.9586 23.6828 15.2526 23.1697 14.7427C22.8619 14.4317 22.4794 14.1923 22.0534 14.0523V10.0534C22.0534 8.6976 21.7798 7.40085 21.2884 6.21612C20.7753 4.98472 20.029 3.8777 19.0992 2.95101C18.1725 2.02432 17.0655 1.27493 15.8342 0.761878C14.6494 0.270527 13.3527 0 12 0C10.6442 0 9.34752 0.270527 8.16273 0.761878C6.93133 1.27493 5.82431 2.02438 4.89761 2.95101C3.97092 3.87764 3.22153 4.98472 2.71158 6.21612C2.21713 7.40085 1.94661 8.6976 1.94661 10.0534C1.94661 10.6069 2.17046 11.1076 2.53434 11.4714C2.89815 11.8352 3.39884 12.0591 3.95232 12.0591C4.50579 12.0591 5.00957 11.8352 5.37339 11.4714C5.73411 11.1076 5.96111 10.6069 5.96111 10.0534C5.96111 9.23866 6.12284 8.46126 6.41822 7.75224C6.72602 7.01528 7.17694 6.34669 7.73666 5.78697C8.29639 5.2304 8.96182 4.77948 9.69885 4.47161C10.4078 4.17623 11.1853 4.01451 11.9999 4.01451C12.8146 4.01451 13.5921 4.17617 14.301 4.47161C15.038 4.77948 15.7034 5.2304 16.2632 5.78697C16.8229 6.34669 17.2739 7.01528 17.5786 7.75224C17.8739 8.4612 18.0388 9.23866 18.0388 10.0534V13.9124H18.0389Z" fill="white"/>
<rect id="Rectangle 256" x="8.72095" y="17.7555" width="8.19969" height="10.4704" fill="white"/>
</g>
<g id="Group 1171275125">
<path id="Vector_2" fill-rule="evenodd" clip-rule="evenodd" d="M14.7644 21.9632C14.7644 21.1982 14.4566 20.5079 13.9559 20.0073C13.4553 19.5066 12.765 19.1988 12 19.1988C11.2381 19.1988 10.5478 19.5066 10.0471 20.0073C9.54653 20.5079 9.23557 21.1983 9.23557 21.9632C9.23557 22.554 9.42214 23.1044 9.74244 23.5553C10.0068 23.9285 10.3613 24.2332 10.7748 24.4385V25.7228C10.7748 26.0586 10.9116 26.3664 11.1356 26.5873C11.3564 26.808 11.6642 26.948 12.0001 26.948C12.339 26.948 12.6437 26.808 12.8677 26.5873C13.0885 26.3665 13.2252 26.0586 13.2252 25.7228V24.4385C13.6388 24.2332 13.9964 23.9285 14.2607 23.5553C14.5779 23.1044 14.7644 22.554 14.7644 21.9632ZM5.96111 13.9124H21.1796C21.957 13.9124 22.6628 14.2296 23.1728 14.7427C23.6828 15.2526 24 15.9586 24 16.736V29.4076C24 30.185 23.6828 30.8909 23.1728 31.4009C22.6629 31.914 21.957 32.2311 21.1796 32.2311H2.82353C2.04614 32.2311 1.34027 31.9139 0.830251 31.4009C0.317202 30.8909 4.3343e-07 30.185 4.3343e-07 29.4076V16.736C4.3343e-07 15.9586 0.317202 15.2526 0.830251 14.7427C1.13812 14.4317 1.5206 14.1923 1.94661 14.0523V10.0534C1.94661 8.6976 2.22023 7.40085 2.71158 6.21612C3.22469 4.98472 3.97099 3.8777 4.90077 2.95101C5.82746 2.02432 6.93448 1.27493 8.16582 0.761878C9.35062 0.270527 10.6473 0 12 0C13.3558 0 14.6525 0.270527 15.8373 0.761878C17.0687 1.27493 18.1757 2.02438 19.1024 2.95101C20.0291 3.87764 20.7785 4.98472 21.2884 6.21612C21.7829 7.40085 22.0534 8.6976 22.0534 10.0534C22.0534 10.6069 21.8295 11.1076 21.4657 11.4714C21.1018 11.8352 20.6012 12.0591 20.0477 12.0591C19.4942 12.0591 18.9904 11.8352 18.6266 11.4714C18.2659 11.1076 18.0389 10.6069 18.0389 10.0534C18.0389 9.23866 17.8772 8.46126 17.5818 7.75224C17.274 7.01528 16.8231 6.34669 16.2633 5.78697C15.7036 5.2304 15.0382 4.77948 14.3011 4.47161C13.5922 4.17623 12.8147 4.01451 12.0001 4.01451C11.1854 4.01451 10.4079 4.17617 9.69898 4.47161C8.96201 4.77948 8.29658 5.2304 7.73679 5.78697C7.17707 6.34669 6.72615 7.01528 6.42143 7.75224C6.12606 8.4612 5.96118 9.23866 5.96118 10.0534V13.9124H5.96111Z" fill="white"/>
<rect id="Rectangle 256_2" width="8.19969" height="10.4704" transform="matrix(-1 0 0 1 15.2783 17.7554)" fill="white"/>
</g>
</g>
</svg>
